<svg xmlns="http://www.w3.org/2000/svg" xmlns:xlink="http://www.w3.org/1999/xlink" version="1.1" x="0px" y="0px" viewBox="0 0 100 125" enable-background="new 0 0 100 100" xml:space="preserve"><g><path d="M95.432,86.932V13.068c0-4.687-3.813-8.5-8.5-8.5H13.068c-4.687,0-8.5,3.813-8.5,8.5v73.863c0,4.687,3.813,8.5,8.5,8.5   h73.863C91.618,95.432,95.432,91.618,95.432,86.932z M86.932,11.568c0.827,0,1.5,0.673,1.5,1.5v73.863   c0,0.425-0.179,0.807-0.464,1.08L11.589,12.865c0.101-0.73,0.722-1.297,1.479-1.297H86.932z"/></g><text x="0" y="115" fill="#000000" font-size="5px" font-weight="bold" font-family="'Helvetica Neue', Helvetica, Arial-Unicode, Arial, Sans-serif">Created by Chinnaking</text><text x="0" y="120" fill="#000000" font-size="5px" font-weight="bold" font-family="'Helvetica Neue', Helvetica, Arial-Unicode, Arial, Sans-serif">from the Noun Project</text></svg>