<?xml version="1.0" encoding="UTF-8" standalone="no"?>
<svg
   xmlns:dc="http://purl.org/dc/elements/1.1/"
   xmlns:cc="http://creativecommons.org/ns#"
   xmlns:rdf="http://www.w3.org/1999/02/22-rdf-syntax-ns#"
   xmlns:svg="http://www.w3.org/2000/svg"
   xmlns="http://www.w3.org/2000/svg"
   xmlns:sodipodi="http://sodipodi.sourceforge.net/DTD/sodipodi-0.dtd"
   xmlns:inkscape="http://www.inkscape.org/namespaces/inkscape"
   version="1.0"
   x="0px"
   y="0px"
   viewBox="0 0 83.701891 72.31674"
   enable-background="new 0 0 100 100"
   xml:space="preserve"
   id="svg3237"
   inkscape:version="0.48.2 r9819"
   width="100%"
   height="100%"
   sodipodi:docname="noun_users.svg"><metadata
     id="metadata3251"><rdf:RDF><cc:Work
         rdf:about=""><dc:format>image/svg+xml</dc:format><dc:type
           rdf:resource="http://purl.org/dc/dcmitype/StillImage" /></cc:Work></rdf:RDF></metadata><defs
     id="defs3249" /><sodipodi:namedview
     pagecolor="#ffffff"
     bordercolor="#666666"
     borderopacity="1"
     objecttolerance="10"
     gridtolerance="10"
     guidetolerance="10"
     inkscape:pageopacity="0"
     inkscape:pageshadow="2"
     inkscape:window-width="640"
     inkscape:window-height="480"
     id="namedview3247"
     showgrid="false"
     inkscape:zoom="1.888"
     inkscape:cx="41.850947"
     inkscape:cy="23.65837"
     inkscape:window-x="0"
     inkscape:window-y="0"
     inkscape:window-maximized="0"
     inkscape:current-layer="svg3237"
     fit-margin-top="0"
     fit-margin-left="0"
     fit-margin-right="0"
     fit-margin-bottom="0" /><path
     d="m 41.807116,6.5290306 c -11.746967,0 -20.137657,12.3454654 -14.915478,23.7169024 5.902821,12.838344 24.010285,12.82661 29.913105,0 C 61.862628,19.261756 54.258196,6.6815876 41.807116,6.5290306 z M 14.417086,72.305007 c -1.173523,-0.08215 -1.854166,-0.97403 -1.854166,-2.217964 h -0.01174 c 0,-5.621178 1.560786,-10.866821 4.248154,-15.337944 H 2.0012108 c -1.20872903,0 -1.97151873,-0.880142 -1.99498963,-2.182755 C -0.22848333,43.025599 6.2024238,34.036414 15.121199,30.738814 0.53430687,22.500682 6.3901878,0.0042406 23.030745,0.0042406 c 4.036923,0 7.862606,1.502109 10.808148,4.166007 5.081356,-2.171018 10.948974,-2.171018 16.030326,0 10.397416,-9.3764505 27.061447,-1.924578 27.061447,12.2398474 0,6.043642 -3.285865,11.465319 -8.34375,14.328718 9.118271,3.368012 14.985894,11.876053 15.114975,22.015297 0,1.103112 -0.891876,1.994988 -1.994987,1.994988 H 66.814898 c 2.652161,4.400711 4.342034,10.115768 4.342034,15.572647 0,1.103119 -0.891877,1.994995 -1.994988,1.994995 L 14.417086,72.30501 z m 5.269119,-21.545891 c 3.520569,-4.10733 8.132515,-7.205429 13.366429,-8.871834 -3.849156,-1.830696 -7.01767,-4.846649 -9.094803,-8.554981 C 13.61909,32.874625 5.0054308,40.61988 4.0783468,50.759116 H 19.686205 z m 30.934071,-8.848362 c 5.210442,1.654667 9.798916,4.764504 13.307751,8.848362 H 79.629771 C 78.702685,40.61988 70.089022,32.874625 59.750285,33.332301 c -2.077133,3.720066 -5.26912,6.736023 -9.130009,8.578453 z M 67.014391,68.326758 C 65.570963,46.698729 39.342719,36.4304 23.934359,52.003051 19.744881,56.23947 17.010573,62.118819 16.599839,68.326758 H 67.014391 z M 61.61619,28.790763 C 72.048808,27.99277 76.7429,15.084014 69.349703,7.6204056 65.125025,3.3487816 58.471148,2.7854906 53.601023,6.2591196 60.677371,11.246592 63.986704,20.235782 61.61619,28.790763 z M 30.107093,6.2591196 C 22.044987,0.4971206 10.76743,6.2943296 10.76743,16.410096 c 0,6.489584 4.928797,11.887789 11.324497,12.380667 -2.370516,-8.554981 0.938818,-17.544171 8.015166,-22.5316434 z"
     id="path3239"
     inkscape:connector-curvature="0" /><path
     d="m 47.416556,27.173186 c 1.208729,-2.323574 4.741036,-0.504616 3.544041,1.818962 -3.825684,7.416664 -14.387394,7.416664 -18.213078,0 -1.196995,-2.323578 2.335308,-4.142536 3.532303,-1.818962 2.347046,4.541535 8.789688,4.553273 11.136734,0 z"
     id="path3241"
     inkscape:connector-curvature="0" /></svg>