<svg xmlns="http://www.w3.org/2000/svg" xmlns:xlink="http://www.w3.org/1999/xlink" version="1.0" x="0px" y="0px" viewBox="0 0 100 125" enable-background="new 0 0 100 100" xml:space="preserve"><path d="M49.9561691,20.3706608c-11.7469673,0-20.1376572,12.3454647-14.9154778,23.7169018  c5.9028206,12.8383446,24.0102844,12.8266106,29.913105,0C70.0116806,33.1033859,62.4072495,20.5232182,49.9561691,20.3706608z   M22.5661392,86.146637c-1.1735229-0.0821533-1.854166-0.9740295-1.854166-2.2179642h-0.0117359  c0-5.6211777,1.5607853-10.8668213,4.2481537-15.337944H10.1502638c-1.2087288,0-1.9715185-0.8801422-1.9949894-2.1827545  c-0.2347045-9.5407448,6.1962023-18.5299301,15.1149778-21.8275299  c-14.5868921-8.2381325-8.7310114-30.7345734,7.9095459-30.7345734c4.0369225,0,7.862606,1.5021095,10.8081474,4.166007  c5.081356-2.1710176,10.9489746-2.1710176,16.0303268,0c10.3974152-9.3764505,27.0614471-1.9245777,27.0614471,12.2398472  c0,6.043642-3.2858658,11.4653187-8.34375,14.3287182c9.1182709,3.3680115,14.9858932,11.8760529,15.114975,22.0152969  c0,1.1031113-0.8918762,1.9949875-1.9949875,1.9949875H74.9639511c2.6521606,4.4007111,4.3420334,10.1157684,4.3420334,15.5726471  c0,1.1031189-0.8918762,1.9949951-1.9949875,1.9949951L22.5661392,86.146637z M27.8352585,64.6007462  c3.5205688-4.1073303,8.132515-7.2054291,13.3664284-8.8718338c-3.8491554-1.8306961-7.0176697-4.8466492-9.0948029-8.5549812  c-10.3387413-0.4576759-18.9524002,7.2875786-19.8794842,17.426815H27.8352585z M58.7693291,55.7523842  c5.2104416,1.6546669,9.7989159,4.7645035,13.3077507,8.848362h15.7017441  c-0.9270859-10.1392365-9.5407486-17.884491-19.8794861-17.426815  C65.8222046,50.8939972,62.6302185,53.9099541,58.7693291,55.7523842z M75.1634445,82.1683884  c-1.443428-21.6280289-27.6716728-31.8963585-43.0800323-16.3237076  c-4.1894779,4.2364197-6.9237862,10.1157684-7.3345203,16.3237076H75.1634445z M69.7652435,42.6323929  c10.4326172-0.7979927,15.126709-13.706749,7.7335129-21.1703568c-4.224678-4.2716236-10.8785553-4.8349152-15.7486801-1.3612862  C68.8264236,25.0882225,72.1357574,34.0774117,69.7652435,42.6323929z M38.2561455,20.10075  c-8.0621052-5.7619991-19.3396626,0.0352058-19.3396626,10.1509762c0,6.489584,4.9287968,11.8877888,11.3244972,12.3806667  C27.8704643,34.0774117,31.1797981,25.0882225,38.2561455,20.10075z"/><path d="M55.565609,41.0148163c1.2087288-2.3235741,4.7410355-0.5046158,3.5440407,1.8189621  c-3.8256836,7.4166641-14.387394,7.4166641-18.2130775,0c-1.1969948-2.3235779,2.3353081-4.1425362,3.5323029-1.8189621  C46.7759209,45.5563507,53.2185631,45.5680885,55.565609,41.0148163z"/><text x="0" y="115" fill="#000000" font-size="5px" font-weight="bold" font-family="'Helvetica Neue', Helvetica, Arial-Unicode, Arial, Sans-serif">Created by sofi</text><text x="0" y="120" fill="#000000" font-size="5px" font-weight="bold" font-family="'Helvetica Neue', Helvetica, Arial-Unicode, Arial, Sans-serif">from the Noun Project</text></svg>