<?xml version="1.0" encoding="UTF-8" standalone="no"?>
<svg
   xmlns:dc="http://purl.org/dc/elements/1.1/"
   xmlns:cc="http://creativecommons.org/ns#"
   xmlns:rdf="http://www.w3.org/1999/02/22-rdf-syntax-ns#"
   xmlns:svg="http://www.w3.org/2000/svg"
   xmlns="http://www.w3.org/2000/svg"
   xmlns:sodipodi="http://sodipodi.sourceforge.net/DTD/sodipodi-0.dtd"
   xmlns:inkscape="http://www.inkscape.org/namespaces/inkscape"
   version="1.1"
   x="0px"
   y="0px"
   viewBox="0 0 100 125"
   enable-background="new 0 0 100 100"
   xml:space="preserve"
   id="svg3163"
   inkscape:version="0.48.2 r9819"
   width="100%"
   height="100%"
   sodipodi:docname="noun_Table Of Contents.svg"><metadata
     id="metadata3175"><rdf:RDF><cc:Work
         rdf:about=""><dc:format>image/svg+xml</dc:format><dc:type
           rdf:resource="http://purl.org/dc/dcmitype/StillImage" /></cc:Work></rdf:RDF></metadata><defs
     id="defs3173" /><sodipodi:namedview
     pagecolor="#ffffff"
     bordercolor="#666666"
     borderopacity="1"
     objecttolerance="10"
     gridtolerance="10"
     guidetolerance="10"
     inkscape:pageopacity="0"
     inkscape:pageshadow="2"
     inkscape:window-width="640"
     inkscape:window-height="480"
     id="namedview3171"
     showgrid="false"
     inkscape:zoom="1.888"
     inkscape:cx="50"
     inkscape:cy="62.5"
     inkscape:window-x="0"
     inkscape:window-y="0"
     inkscape:window-maximized="0"
     inkscape:current-layer="svg3163" /><path
     fill-rule="evenodd"
     clip-rule="evenodd"
     d="M78.201,77.618H40.998c-1.667,0-3.018-1.351-3.018-3.018v-1.2  c0-1.667,1.351-3.018,3.018-3.018h37.203c1.667,0,3.018,1.351,3.018,3.018v1.2C81.219,76.267,79.868,77.618,78.201,77.618z   M78.201,53.618H40.998c-1.667,0-3.018-1.351-3.018-3.018v-1.2c0-1.667,1.351-3.018,3.018-3.018h37.203  c1.667,0,3.018,1.351,3.018,3.018v1.2C81.219,52.267,79.868,53.618,78.201,53.618z M78.201,29.618H40.998  c-1.667,0-3.018-1.351-3.018-3.018v-1.2c0-1.667,1.351-3.018,3.018-3.018h37.203c1.667,0,3.018,1.351,3.018,3.018v1.2  C81.219,28.267,79.868,29.618,78.201,29.618z M27.801,77.618h-6.003c-1.666,0-3.017-1.351-3.017-3.018v-1.2  c0-1.667,1.351-3.018,3.017-3.018h6.003c1.667,0,3.018,1.351,3.018,3.018v1.2C30.819,76.267,29.468,77.618,27.801,77.618z   M27.801,53.618h-6.003c-1.666,0-3.017-1.351-3.017-3.018v-1.2c0-1.667,1.351-3.018,3.017-3.018h6.003  c1.667,0,3.018,1.351,3.018,3.018v1.2C30.819,52.267,29.468,53.618,27.801,53.618z M27.802,29.618h-6.004  c-1.666,0-3.017-1.351-3.017-3.018v-1.2c0-1.667,1.351-3.018,3.017-3.018h6.004c1.666,0,3.017,1.351,3.017,3.018v1.2  C30.819,28.267,29.468,29.618,27.802,29.618z"
     id="path3165" /></svg>