<?xml version="1.0" encoding="UTF-8" standalone="no"?>
<svg
   xmlns:dc="http://purl.org/dc/elements/1.1/"
   xmlns:cc="http://creativecommons.org/ns#"
   xmlns:rdf="http://www.w3.org/1999/02/22-rdf-syntax-ns#"
   xmlns:svg="http://www.w3.org/2000/svg"
   xmlns="http://www.w3.org/2000/svg"
   xmlns:sodipodi="http://sodipodi.sourceforge.net/DTD/sodipodi-0.dtd"
   xmlns:inkscape="http://www.inkscape.org/namespaces/inkscape"
   version="1.1"
   x="0px"
   y="0px"
   viewBox="0 0 90.864 90.863"
   enable-background="new 0 0 100 100"
   xml:space="preserve"
   id="svg3033"
   inkscape:version="0.48.2 r9819"
   width="100%"
   height="100%"
   sodipodi:docname="noun_Contrast.svg"><metadata
     id="metadata3047"><rdf:RDF><cc:Work
         rdf:about=""><dc:format>image/svg+xml</dc:format><dc:type
           rdf:resource="http://purl.org/dc/dcmitype/StillImage" /></cc:Work></rdf:RDF></metadata><defs
     id="defs3045" /><sodipodi:namedview
     pagecolor="#ffffff"
     bordercolor="#666666"
     borderopacity="1"
     objecttolerance="10"
     gridtolerance="10"
     guidetolerance="10"
     inkscape:pageopacity="0"
     inkscape:pageshadow="2"
     inkscape:window-width="1280"
     inkscape:window-height="962"
     id="namedview3043"
     showgrid="false"
     inkscape:zoom="3.09"
     inkscape:cx="45.432"
     inkscape:cy="32.931"
     inkscape:window-x="-8"
     inkscape:window-y="-8"
     inkscape:window-maximized="1"
     inkscape:current-layer="svg3033"
     fit-margin-top="0"
     fit-margin-left="0"
     fit-margin-right="0"
     fit-margin-bottom="0" /><g
     id="g3035"
     transform="translate(-4.568,-4.568)"><path
       d="M 95.432,86.932 V 13.068 c 0,-4.687 -3.813,-8.5 -8.5,-8.5 H 13.068 c -4.687,0 -8.5,3.813 -8.5,8.5 v 73.863 c 0,4.687 3.813,8.5 8.5,8.5 h 73.863 c 4.687,0.001 8.501,-3.813 8.501,-8.499 z m -8.5,-75.364 c 0.827,0 1.5,0.673 1.5,1.5 v 73.863 c 0,0.425 -0.179,0.807 -0.464,1.08 L 11.589,12.865 c 0.101,-0.73 0.722,-1.297 1.479,-1.297 h 73.864 z"
       id="path3037"
       inkscape:connector-curvature="0" /></g></svg>