<?xml version="1.0" encoding="UTF-8" standalone="no"?>
<svg
   xmlns:ns="http://ns.adobe.com/SaveForWeb/1.0/"
   xmlns:dc="http://purl.org/dc/elements/1.1/"
   xmlns:cc="http://creativecommons.org/ns#"
   xmlns:rdf="http://www.w3.org/1999/02/22-rdf-syntax-ns#"
   xmlns:svg="http://www.w3.org/2000/svg"
   xmlns="http://www.w3.org/2000/svg"
   xmlns:sodipodi="http://sodipodi.sourceforge.net/DTD/sodipodi-0.dtd"
   xmlns:inkscape="http://www.inkscape.org/namespaces/inkscape"
   version="1.1"
   x="0px"
   y="0px"
   viewBox="0 0 64 80"
   enable-background="new 0 0 64 64"
   xml:space="preserve"
   id="svg3093"
   inkscape:version="0.48.2 r9819"
   width="100%"
   height="100%"
   sodipodi:docname="noun_Structure.svg"><defs
     id="defs3107" /><sodipodi:namedview
     pagecolor="#ffffff"
     bordercolor="#666666"
     borderopacity="1"
     objecttolerance="10"
     gridtolerance="10"
     guidetolerance="10"
     inkscape:pageopacity="0"
     inkscape:pageshadow="2"
     inkscape:window-width="640"
     inkscape:window-height="480"
     id="namedview3105"
     showgrid="false"
     inkscape:zoom="2.95"
     inkscape:cx="32"
     inkscape:cy="40"
     inkscape:window-x="0"
     inkscape:window-y="0"
     inkscape:window-maximized="0"
     inkscape:current-layer="svg3093" /><metadata
     id="metadata3095"><ns:sfw><ns:slices /><ns:sliceSourceBounds
         height="16384"
         width="16389"
         x="-8165"
         y="-8160"
         bottomLeftOrigin="true" /></ns:sfw><rdf:RDF><cc:Work
         rdf:about=""><dc:format>image/svg+xml</dc:format><dc:type
           rdf:resource="http://purl.org/dc/dcmitype/StillImage" /></cc:Work></rdf:RDF></metadata><g
     id="g3097"><path
       d="M58,37h-5v-5c0-0.552-0.447-1-1-1H33v-4h5c0.553,0,1-0.448,1-1V14c0-0.552-0.447-1-1-1H26c-0.552,0-1,0.448-1,1v12   c0,0.552,0.448,1,1,1h5v4H12c-0.552,0-1,0.448-1,1v5H6c-0.552,0-1,0.447-1,1v12c0,0.553,0.448,1,1,1h12c0.552,0,1-0.447,1-1V38   c0-0.553-0.448-1-1-1h-5v-4h18v4h-5c-0.552,0-1,0.447-1,1v12c0,0.553,0.448,1,1,1h12c0.553,0,1-0.447,1-1V38c0-0.553-0.447-1-1-1   h-5v-4h18v4h-5c-0.553,0-1,0.447-1,1v12c0,0.553,0.447,1,1,1h12c0.553,0,1-0.447,1-1V38C59,37.447,58.553,37,58,37z M27,15h10v10   H27V15z M17,49H7V39h10V49z M37,49H27V39h10V49z M57,49H47V39h10V49z"
       id="path3099" /></g></svg>