<?xml version="1.0" encoding="UTF-8" standalone="no"?>
<svg
   xmlns:dc="http://purl.org/dc/elements/1.1/"
   xmlns:cc="http://creativecommons.org/ns#"
   xmlns:rdf="http://www.w3.org/1999/02/22-rdf-syntax-ns#"
   xmlns:svg="http://www.w3.org/2000/svg"
   xmlns="http://www.w3.org/2000/svg"
   xmlns:sodipodi="http://sodipodi.sourceforge.net/DTD/sodipodi-0.dtd"
   xmlns:inkscape="http://www.inkscape.org/namespaces/inkscape"
   viewBox="0 0 68 72.5"
   x="0px"
   y="0px"
   id="svg3063"
   version="1.1"
   inkscape:version="0.48.2 r9819"
   width="100%"
   height="100%"
   sodipodi:docname="noun_emotion.svg">
  <metadata
     id="metadata3075">
    <rdf:RDF>
      <cc:Work
         rdf:about="">
        <dc:format>image/svg+xml</dc:format>
        <dc:type
           rdf:resource="http://purl.org/dc/dcmitype/StillImage" />
      </cc:Work>
    </rdf:RDF>
  </metadata>
  <defs
     id="defs3073" />
  <sodipodi:namedview
     pagecolor="#ffffff"
     bordercolor="#666666"
     borderopacity="1"
     objecttolerance="10"
     gridtolerance="10"
     guidetolerance="10"
     inkscape:pageopacity="0"
     inkscape:pageshadow="2"
     inkscape:window-width="640"
     inkscape:window-height="480"
     id="namedview3071"
     showgrid="false"
     inkscape:zoom="3.2551724"
     inkscape:cx="34"
     inkscape:cy="36.25"
     inkscape:window-x="0"
     inkscape:window-y="0"
     inkscape:window-maximized="0"
     inkscape:current-layer="svg3063" />
  <path
     d="M216,2951 L221,2951 C222.104569,2951 223,2951.89543 223,2953 L223,2998 C223,2999.10457 222.104569,3000 221,3000 L185,3000 C183.895431,3000 183,2999.10457 183,2998 L183,2993 L178,2993 C176.895431,2993 176,2992.10457 176,2991 L176,2946 C176,2944.89543 176.895431,2944 178,2944 L214,2944 C215.104569,2944 216,2944.89543 216,2946 L216,2951 Z M180,2981 L180,2989 L212,2989 L212,2981 L180,2981 Z M216,2988 L216,2991 C216,2992.10457 215.104569,2993 214,2993 L187,2993 L187,2996 L219,2996 L219,2988 L216,2988 Z M180,2948 L180,2977 L212,2977 L212,2948 L180,2948 Z M219,2955 L216,2955 L216,2984 L219,2984 L219,2955 Z M232,2992 L232,2946 C232,2944.89543 232.895431,2944 234,2944 L242,2944 C243.104569,2944 244,2944.89543 244,2946 L244,2992 C244,2992.31049 243.92771,2992.61672 243.788854,2992.89443 L239.788854,3000.89443 C239.051806,3002.36852 236.948194,3002.36852 236.211146,3000.89443 L232.211146,2992.89443 C232.07229,2992.61672 232,2992.31049 232,2992 Z M236,2989 L236,2991.52786 L238,2995.52786 L240,2991.52786 L240,2989 L236,2989 Z M236,2985 L240,2985 L240,2956 L236,2956 L236,2985 Z M236,2952 L240,2952 L240,2948 L236,2948 L236,2952 Z M200.949747,2965.94975 C201.730796,2965.1687 202.997126,2965.1687 203.778175,2965.94975 C204.559223,2966.7308 204.559223,2967.99713 203.778175,2968.77817 C199.482407,2973.07394 192.517593,2973.07394 188.221825,2968.77817 C187.440777,2967.99713 187.440777,2966.7308 188.221825,2965.94975 C189.002874,2965.1687 190.269204,2965.1687 191.050253,2965.94975 C193.783923,2968.68342 198.216077,2968.68342 200.949747,2965.94975 Z M190,2960 C188.343146,2960 187,2958.65685 187,2957 C187,2955.34315 188.343146,2954 190,2954 C191.656854,2954 193,2955.34315 193,2957 C193,2958.65685 191.656854,2960 190,2960 Z M202,2960 C200.343146,2960 199,2958.65685 199,2957 C199,2955.34315 200.343146,2954 202,2954 C203.656854,2954 205,2955.34315 205,2957 C205,2958.65685 203.656854,2960 202,2960 Z"
     transform="translate(-176 -2944)"
     id="path3065" />
</svg>
