<svg xmlns:dc="http://purl.org/dc/elements/1.1/" xmlns:cc="http://creativecommons.org/ns#" xmlns:rdf="http://www.w3.org/1999/02/22-rdf-syntax-ns#" xmlns:svg="http://www.w3.org/2000/svg" xmlns="http://www.w3.org/2000/svg" xmlns:sodipodi="http://sodipodi.sourceforge.net/DTD/sodipodi-0.dtd" xmlns:inkscape="http://www.inkscape.org/namespaces/inkscape" version="1.1" x="0px" y="0px" viewBox="0 0 100 125"><g transform="translate(0,-952.36218)"><path style="text-indent:0;text-transform:none;direction:ltr;block-progression:tb;baseline-shift:baseline;color:#000000;enable-background:accumulate;" d="M 6.9999999,959.36213 C 5.8954,959.36213 5,960.25753 5,961.36213 l 0,82.00007 c 0,1.1046 0.8954,2 1.9999999,2 l 86.0000001,0 c 1.1046,0 2,-0.8954 2,-2 0,-1.1046 -0.8954,-2 -2,-2 l -84.0000001,0 0,-80.00007 c 0,-1.1046 -0.8954,-2 -2,-2 z M 53.9376,969.93036 c -0.067,0.93639 0.618,1.87041 1.5312,2.08814 l 4.9374,1.34375 -40.2812,19.18748 c -0.9837,0.4312 -1.4655,1.7421 -0.9953,2.7077 0.4702,0.9656 1.7993,1.3946 2.7453,0.8861 l 40.5938,-19.34378 -1.3438,5.03128 c -0.2702,1.0145 0.4071,2.1835 1.4218,2.4535 1.0146,0.27 2.1834,-0.4076 2.4532,-1.4223 l 2.5938,-9.62498 c 0.2644,-1.00627 -0.4028,-2.16273 -1.4063,-2.4375 l -9.6563,-2.625 c -1.2095,-0.34622 -2.5427,0.35313 -2.5936,1.75561 z M 73,985.36223 c -1.1354,0.027 -1.9754,1.0991 -2,2 l 0,43.99997 c 1e-4,1.0472 0.9528,1.9999 2,2 l 8,0 c 1.0472,-10e-5 1.9999,-0.9528 2,-2 l 0,-43.99997 c -1e-4,-1.0472 -0.9528,-1.9999 -2,-2 z m 2,4 4,0 0,39.99997 -4,0 z m -20,2 c -1.1354,0.027 -1.9754,1.0991 -2,2 l 0,37.99997 c 1e-4,1.0472 0.9528,1.9999 2,2 l 8,0 c 1.0472,-10e-5 1.9999,-0.9528 2,-2 l 0,-37.99997 c -1e-4,-1.0472 -0.9528,-1.9999 -2,-2 z m 2,4 4,0 0,33.99997 -4,0 z m -20,2 c -1.1354,0.027 -1.9754,1.0991 -2,2 l 0,31.99997 c 1e-4,1.0472 0.9528,1.9999 2,2 l 8,0 c 1.0472,-10e-5 1.9999,-0.9528 2,-2 l 0,-31.99997 c -1e-4,-1.0472 -0.9528,-1.9999 -2,-2 z m 2,3.99997 4,0 0,28 -4,0 z m -20,2 c -1.1354,0.027 -1.9754,1.0991 -2,2 l 0,26 c 10e-5,1.0472 0.9528,1.9999 2,2 l 8,0 c 1.0472,-10e-5 1.9999,-0.9528 2,-2 l 0,-26 c -10e-5,-1.0472 -0.9528,-1.9999 -2,-2 z m 2,4 4,0 0,22 -4,0 z" fill="#000000" fill-opacity="1" stroke="none" marker="none" visibility="visible" display="inline" overflow="visible"/></g><text x="0" y="115" fill="#000000" font-size="5px" font-weight="bold" font-family="'Helvetica Neue', Helvetica, Arial-Unicode, Arial, Sans-serif">Created by Barracuda</text><text x="0" y="120" fill="#000000" font-size="5px" font-weight="bold" font-family="'Helvetica Neue', Helvetica, Arial-Unicode, Arial, Sans-serif">from the Noun Project</text></svg>