<?xml version="1.0" encoding="UTF-8" standalone="no"?>
<svg
   xmlns:dc="http://purl.org/dc/elements/1.1/"
   xmlns:cc="http://creativecommons.org/ns#"
   xmlns:rdf="http://www.w3.org/1999/02/22-rdf-syntax-ns#"
   xmlns:svg="http://www.w3.org/2000/svg"
   xmlns="http://www.w3.org/2000/svg"
   xmlns:sodipodi="http://sodipodi.sourceforge.net/DTD/sodipodi-0.dtd"
   xmlns:inkscape="http://www.inkscape.org/namespaces/inkscape"
   version="1.1"
   x="0px"
   y="0px"
   viewBox="0 0 62.438 55.236"
   enable-background="new 0 0 100 100"
   xml:space="preserve"
   id="svg3163"
   inkscape:version="0.48.2 r9819"
   width="100%"
   height="100%"
   sodipodi:docname="noun_Table Of Contents.svg"><metadata
     id="metadata3175"><rdf:RDF><cc:Work
         rdf:about=""><dc:format>image/svg+xml</dc:format><dc:type
           rdf:resource="http://purl.org/dc/dcmitype/StillImage" /></cc:Work></rdf:RDF></metadata><defs
     id="defs3173" /><sodipodi:namedview
     pagecolor="#ffffff"
     bordercolor="#666666"
     borderopacity="1"
     objecttolerance="10"
     gridtolerance="10"
     guidetolerance="10"
     inkscape:pageopacity="0"
     inkscape:pageshadow="2"
     inkscape:window-width="640"
     inkscape:window-height="480"
     id="namedview3171"
     showgrid="false"
     inkscape:zoom="1.888"
     inkscape:cx="31.219"
     inkscape:cy="15.118"
     inkscape:window-x="0"
     inkscape:window-y="0"
     inkscape:window-maximized="0"
     inkscape:current-layer="svg3163"
     fit-margin-top="0"
     fit-margin-left="0"
     fit-margin-right="0"
     fit-margin-bottom="0" /><path
     clip-rule="evenodd"
     d="M 59.42,55.236 H 22.217 c -1.667,0 -3.018,-1.351 -3.018,-3.018 v -1.2 C 19.199,49.351 20.55,48 22.217,48 H 59.42 c 1.667,0 3.018,1.351 3.018,3.018 v 1.2 c 0,1.667 -1.351,3.018 -3.018,3.018 z m 0,-24 H 22.217 c -1.667,0 -3.018,-1.351 -3.018,-3.018 v -1.2 C 19.199,25.351 20.55,24 22.217,24 H 59.42 c 1.667,0 3.018,1.351 3.018,3.018 v 1.2 c 0,1.667 -1.351,3.018 -3.018,3.018 z m 0,-24 H 22.217 c -1.667,0 -3.018,-1.351 -3.018,-3.018 v -1.2 C 19.199,1.351 20.55,0 22.217,0 H 59.42 c 1.667,0 3.018,1.351 3.018,3.018 v 1.2 c 0,1.667 -1.351,3.018 -3.018,3.018 z m -50.4,48 H 3.017 C 1.351,55.236 0,53.885 0,52.218 v -1.2 C 0,49.351 1.351,48 3.017,48 H 9.02 c 1.667,0 3.018,1.351 3.018,3.018 v 1.2 c 0,1.667 -1.351,3.018 -3.018,3.018 z m 0,-24 H 3.017 C 1.351,31.236 0,29.885 0,28.218 v -1.2 C 0,25.351 1.351,24 3.017,24 H 9.02 c 1.667,0 3.018,1.351 3.018,3.018 v 1.2 c 0,1.667 -1.351,3.018 -3.018,3.018 z m 0.001,-24 H 3.017 C 1.351,7.236 0,5.885 0,4.218 v -1.2 C 0,1.351 1.351,0 3.017,0 h 6.004 c 1.666,0 3.017,1.351 3.017,3.018 v 1.2 c 0,1.667 -1.351,3.018 -3.017,3.018 z"
     id="path3165"
     inkscape:connector-curvature="0"
     style="fill-rule:evenodd" /></svg>