<?xml version="1.0" encoding="UTF-8" standalone="no"?>
<svg
   xmlns:dc="http://purl.org/dc/elements/1.1/"
   xmlns:cc="http://creativecommons.org/ns#"
   xmlns:rdf="http://www.w3.org/1999/02/22-rdf-syntax-ns#"
   xmlns:svg="http://www.w3.org/2000/svg"
   xmlns="http://www.w3.org/2000/svg"
   xmlns:sodipodi="http://sodipodi.sourceforge.net/DTD/sodipodi-0.dtd"
   xmlns:inkscape="http://www.inkscape.org/namespaces/inkscape"
   viewBox="0 0 68 57.999997"
   x="0px"
   y="0px"
   id="svg3063"
   version="1.1"
   inkscape:version="0.48.2 r9819"
   width="100%"
   height="100%"
   sodipodi:docname="noun_emotion.svg">
  <metadata
     id="metadata3075">
    <rdf:RDF>
      <cc:Work
         rdf:about="">
        <dc:format>image/svg+xml</dc:format>
        <dc:type
           rdf:resource="http://purl.org/dc/dcmitype/StillImage" />
      </cc:Work>
    </rdf:RDF>
  </metadata>
  <defs
     id="defs3073" />
  <sodipodi:namedview
     pagecolor="#ffffff"
     bordercolor="#666666"
     borderopacity="1"
     objecttolerance="10"
     gridtolerance="10"
     guidetolerance="10"
     inkscape:pageopacity="0"
     inkscape:pageshadow="2"
     inkscape:window-width="640"
     inkscape:window-height="480"
     id="namedview3071"
     showgrid="false"
     inkscape:zoom="3.2551724"
     inkscape:cx="34"
     inkscape:cy="21.749997"
     inkscape:window-x="0"
     inkscape:window-y="0"
     inkscape:window-maximized="0"
     inkscape:current-layer="svg3063"
     fit-margin-top="0"
     fit-margin-left="0"
     fit-margin-right="0"
     fit-margin-bottom="0" />
  <path
     d="m 40,7 5,0 c 1.10457,0 2,0.8954 2,2 l 0,45 c 0,1.1046 -0.89543,2 -2,2 L 9,56 C 7.89543,56 7,55.1046 7,54 L 7,49 2,49 C 0.89543,49 0,48.1046 0,47 L 0,2 C 0,0.8954 0.89543,0 2,0 l 36,0 c 1.10457,0 2,0.8954 2,2 l 0,5 z m -36,30 0,8 32,0 0,-8 -32,0 z m 36,7 0,3 c 0,1.1046 -0.89543,2 -2,2 l -27,0 0,3 32,0 0,-8 -3,0 z M 4,4 4,33 36,33 36,4 4,4 z m 39,7 -3,0 0,29 3,0 0,-29 z M 56,48 56,2 c 0,-1.1046 0.89543,-2 2,-2 l 8,0 c 1.10457,0 2,0.8954 2,2 l 0,46 c 0,0.3105 -0.0723,0.6167 -0.21115,0.8944 l -4,8 c -0.73704,1.4741 -2.84066,1.4741 -3.5777,0 l -4,-8 C 56.07229,48.6167 56,48.3105 56,48 z m 4,-3 0,2.5279 2,4 2,-4 L 64,45 60,45 z m 0,-4 4,0 0,-29 -4,0 0,29 z m 0,-33 4,0 0,-4 -4,0 0,4 z M 24.94975,21.9498 c 0.78105,-0.7811 2.04738,-0.7811 2.82842,0 0.78105,0.781 0.78105,2.0473 0,2.8284 -4.29576,4.2957 -11.26058,4.2957 -15.55635,0 -0.78104,-0.7811 -0.78104,-2.0474 0,-2.8284 0.78105,-0.7811 2.04738,-0.7811 2.82843,0 2.73367,2.7336 7.16583,2.7336 9.8995,0 z M 14,16 c -1.65685,0 -3,-1.3432 -3,-3 0,-1.6568 1.34315,-3 3,-3 1.65685,0 3,1.3432 3,3 0,1.6568 -1.34315,3 -3,3 z m 12,0 c -1.65685,0 -3,-1.3432 -3,-3 0,-1.6568 1.34315,-3 3,-3 1.65685,0 3,1.3432 3,3 0,1.6568 -1.34315,3 -3,3 z"
     id="path3065"
     inkscape:connector-curvature="0" />
</svg>
