<?xml version="1.0" encoding="UTF-8" standalone="no"?>
<svg
   xmlns:dc="http://purl.org/dc/elements/1.1/"
   xmlns:cc="http://creativecommons.org/ns#"
   xmlns:rdf="http://www.w3.org/1999/02/22-rdf-syntax-ns#"
   xmlns:svg="http://www.w3.org/2000/svg"
   xmlns="http://www.w3.org/2000/svg"
   xmlns:sodipodi="http://sodipodi.sourceforge.net/DTD/sodipodi-0.dtd"
   xmlns:inkscape="http://www.inkscape.org/namespaces/inkscape"
   version="1.1"
   x="0px"
   y="0px"
   viewBox="0 0 79.000111 89.375"
   enable-background="new 0 0 100 100"
   xml:space="preserve"
   id="svg2999"
   inkscape:version="0.48.2 r9819"
   width="100%"
   height="100%"
   sodipodi:docname="noun_Constructed Language.svg"><metadata
     id="metadata3011"><rdf:RDF><cc:Work
         rdf:about=""><dc:format>image/svg+xml</dc:format><dc:type
           rdf:resource="http://purl.org/dc/dcmitype/StillImage" /></cc:Work></rdf:RDF></metadata><defs
     id="defs3009" /><sodipodi:namedview
     pagecolor="#ffffff"
     bordercolor="#666666"
     borderopacity="1"
     objecttolerance="10"
     gridtolerance="10"
     guidetolerance="10"
     inkscape:pageopacity="0"
     inkscape:pageshadow="2"
     inkscape:window-width="640"
     inkscape:window-height="480"
     id="namedview3007"
     showgrid="false"
     inkscape:zoom="1.888"
     inkscape:cx="39.5"
     inkscape:cy="32.188"
     inkscape:window-x="0"
     inkscape:window-y="0"
     inkscape:window-maximized="0"
     inkscape:current-layer="svg2999"
     fit-margin-top="0"
     fit-margin-left="0"
     fit-margin-right="0"
     fit-margin-bottom="0" /><path
     d="M 78.814,13.689 C 78.786,13.638 65.553,2.46 63.004,0.351 62.739,0.132 61.729,0 61.729,0 H 2 C 0.896,0 0,0.896 0,2 v 85.375 c 0,1.104 0.896,2 2,2 h 75 c 1.104,0 2,-0.896 2,-2 V 14.52 c 0,-0.024 0.011,-0.474 -0.186,-0.831 z M 62.396,4.569 74.035,14.604 H 62.396 V 4.569 z M 4,85.375 V 4 h 56.396 v 11.604 c 0,0.553 0.448,1 1,1 H 75 V 85.375 H 4 z M 14.034,30.278 c 0.124,0.052 0.254,0.076 0.383,0.076 0.26,0 0.516,-0.102 0.707,-0.293 l 8.833,-8.834 c 0.286,-0.286 0.372,-0.716 0.217,-1.09 -0.155,-0.374 -0.52,-0.617 -0.924,-0.617 h -8.833 c -0.552,0 -1,0.447 -1,1 v 8.834 c 0,0.404 0.243,0.77 0.617,0.924 z m 1.383,-8.758 h 5.419 l -5.419,5.42 v -5.42 z m 3,10.834 H 26.25 V 24.52 c 0,-0.553 0.448,-1 1,-1 0.552,0 1,0.447 1,1 v 8.834 c 0,0.553 -0.448,1 -1,1 h -8.833 c -0.552,0 -1,-0.447 -1,-1 0,-0.553 0.447,-1 1,-1 z M 39,30.258 v 2.096 h -3.004 c -0.552,0 -1,0.447 -1,1 0,0.553 0.448,1 1,1 h 8.009 c 0.552,0 1,-0.447 1,-1 0,-0.553 -0.448,-1 -1,-1 H 41 v -2.096 c 2.51,-0.471 4.417,-2.675 4.417,-5.321 0,-2.987 -2.43,-5.417 -5.417,-5.417 -2.987,0 -5.417,2.43 -5.417,5.417 0,2.645 1.907,4.85 4.417,5.321 z m 1,-8.738 c 1.884,0 3.417,1.533 3.417,3.417 0,1.534 -1.022,2.819 -2.417,3.25 v -3.25 c 0,-0.553 -0.448,-1 -1,-1 -0.552,0 -1,0.447 -1,1 v 3.25 c -1.394,-0.431 -2.417,-1.717 -2.417,-3.25 0,-1.884 1.533,-3.417 3.417,-3.417 z m 23.729,26.409 h -4.333 v -1.492 h 2.854 c 0.552,0 1,-0.447 1,-1 0,-0.553 -0.448,-1 -1,-1 h -3.44 l -3.832,-3.832 c -0.391,-0.391 -1.023,-0.391 -1.414,0 -0.391,0.391 -0.391,1.023 0,1.414 l 3.832,3.832 v 2.078 h -4.333 c -0.552,0 -1,0.447 -1,1 0,3.492 2.841,6.334 6.333,6.334 3.492,0 6.333,-2.842 6.333,-6.334 0,-0.553 -0.448,-1 -1,-1 z m -5.333,5.334 c -2.045,0 -3.765,-1.425 -4.217,-3.334 h 8.434 c -0.453,1.909 -2.172,3.334 -4.217,3.334 z M 53.719,32.354 h 9.125 c 0.552,0 1,0.447 1,1 0,0.553 -0.448,1 -1,1 h -9.125 c -0.552,0 -1,-0.447 -1,-1 0,-0.553 0.448,-1 1,-1 z M 27.771,42.596 h -9.167 c -0.027,0 -0.05,0.013 -0.077,0.016 -3.349,0.161 -6.027,2.928 -6.027,6.317 0,3.492 2.841,6.334 6.333,6.334 3.492,0 6.333,-2.842 6.333,-6.334 0,-1.677 -0.659,-3.199 -1.727,-4.333 h 3.331 v 1.363 c 0,0.553 0.448,1 1,1 0.552,0 1,-0.447 1,-1 v -2.363 c 0.001,-0.553 -0.447,-1 -0.999,-1 z m -4.604,6.333 c 0,2.39 -1.944,4.334 -4.333,4.334 -2.39,0 -4.333,-1.944 -4.333,-4.334 0,-2.39 1.944,-4.333 4.333,-4.333 2.389,0 4.333,1.944 4.333,4.333 z m 18.774,3.214 c 0.552,0 1,-0.447 1,-1 0,-0.249 -0.091,-0.477 -0.242,-0.652 l -2.487,-4.305 c -0.179,-0.31 -0.509,-0.5 -0.866,-0.5 -10e-4,0 -0.003,0 -0.004,0 l -3.789,0.017 c -0.355,0.002 -0.684,0.192 -0.861,0.5 l -2.564,4.44 c -0.179,0.31 -0.179,0.69 0,1 0.179,0.31 0.509,0.5 0.866,0.5 h 8.927 c 0.007,-10e-4 0.013,-10e-4 0.02,0 z m -7.214,-2 1.411,-2.443 2.634,-0.011 1.417,2.454 h -5.462 z m 13.959,3.619 c 0.176,0.31 0.174,0.689 -0.005,0.997 -0.179,0.308 -0.508,0.497 -0.864,0.497 H 37.8 c -0.552,0 -1,-0.447 -1,-1 0,-0.553 0.448,-1 1,-1 h 8.298 l -3.97,-6.99 c -0.272,-0.48 -0.104,-1.091 0.376,-1.363 0.479,-0.273 1.091,-0.104 1.363,0.375 l 4.819,8.484 z m 3.845,-28.086 c 0,-0.553 0.448,-1 1,-1 h 3.75 v -3.989 c 0,-0.553 0.448,-1 1,-1 0.552,0 1,0.447 1,1 v 9.823 c 0,0.553 -0.448,1 -1,1 -0.552,0 -1,-0.447 -1,-1 v -3.834 h -3.75 c -0.552,0 -1,-0.447 -1,-1 z M 24.684,61.026 C 24.42,60.837 24.081,60.789 23.775,60.898 l -10.168,3.568 c -0.4,0.141 -0.668,0.518 -0.669,0.941 -0.001,0.423 0.266,0.803 0.666,0.944 l 9.502,3.371 v 4.589 h -6.022 c -0.552,0 -1,0.447 -1,1 0,0.553 0.448,1 1,1 h 7.022 c 0.552,0 1,-0.447 1,-1 V 69.04 c 0,-0.016 0,-0.031 0,-0.047 v -7.152 c -0.001,-0.324 -0.158,-0.628 -0.422,-0.815 z m -1.579,6.575 -6.163,-2.187 6.163,-2.162 v 4.349 z m 23.958,-3.779 h -6.48 c -0.552,0 -1,0.447 -1,1 v 1.375 l -4.124,-4.992 c -0.351,-0.425 -0.981,-0.484 -1.408,-0.135 -0.426,0.353 -0.486,0.982 -0.134,1.408 l 5.895,7.137 c 0.01,0.012 0.024,0.015 0.034,0.026 0.071,0.079 0.156,0.138 0.248,0.191 0.03,0.017 0.054,0.043 0.085,0.057 0.124,0.055 0.26,0.089 0.404,0.089 h 5.48 v 5.334 c 0,0.553 0.448,1 1,1 0.552,0 1,-0.447 1,-1 v -10.49 c 0,-0.553 -0.448,-1 -1,-1 z m -5.48,4.156 v -2.156 h 4.48 v 2.156 h -4.48 z m 19.526,-5.137 c 0.552,0 1,-0.447 1,-1 0,-0.553 -0.448,-1 -1,-1 h -5.426 c -0.552,0 -1,0.447 -1,1 v 6.417 c 0,2.047 1.666,3.713 3.713,3.713 0.621,0 1.198,-0.168 1.713,-0.438 v 2.779 h -3.921 c -0.552,0 -1,0.447 -1,1 0,0.553 0.448,1 1,1 h 4.921 c 0.552,0 1,-0.447 1,-1 v -7.054 c 0,-2.047 -1.666,-3.713 -3.713,-3.713 -0.621,0 -1.198,0.168 -1.713,0.439 v -2.143 h 4.426 z m -2.713,3.704 c 0.944,0 1.713,0.769 1.713,1.713 0,0.944 -0.769,1.713 -1.713,1.713 -0.945,0 -1.713,-0.769 -1.713,-1.713 0,-0.944 0.768,-1.713 1.713,-1.713 z m -16.813,5.58 v 3.188 c 0,0.553 -0.448,1 -1,1 -0.552,0 -1,-0.447 -1,-1 v -3.188 c 0,-0.553 0.448,-1 1,-1 0.552,0 1,0.447 1,1 z m -3.125,0 v 3.188 c 0,0.553 -0.448,1 -1,1 -0.552,0 -1,-0.447 -1,-1 v -3.188 c 0,-0.553 0.448,-1 1,-1 0.552,0 1,0.447 1,1 z m -21.5,-23.196 c 0,-0.553 0.448,-1 1,-1 h 1.292 c 0.552,0 1,0.447 1,1 0,0.553 -0.448,1 -1,1 h -1.292 c -0.552,0 -1,-0.447 -1,-1 z"
     id="path3001"
     inkscape:connector-curvature="0" /></svg>