<?xml version="1.0" encoding="UTF-8" standalone="no"?>
<svg
   xmlns:dc="http://purl.org/dc/elements/1.1/"
   xmlns:cc="http://creativecommons.org/ns#"
   xmlns:rdf="http://www.w3.org/1999/02/22-rdf-syntax-ns#"
   xmlns:svg="http://www.w3.org/2000/svg"
   xmlns="http://www.w3.org/2000/svg"
   xmlns:sodipodi="http://sodipodi.sourceforge.net/DTD/sodipodi-0.dtd"
   xmlns:inkscape="http://www.inkscape.org/namespaces/inkscape"
   version="1.1"
   x="0px"
   y="0px"
   viewBox="0 0 100 125"
   enable-background="new 0 0 100 100"
   xml:space="preserve"
   id="svg2999"
   inkscape:version="0.48.2 r9819"
   width="100%"
   height="100%"
   sodipodi:docname="noun_Constructed Language.svg"><metadata
     id="metadata3011"><rdf:RDF><cc:Work
         rdf:about=""><dc:format>image/svg+xml</dc:format><dc:type
           rdf:resource="http://purl.org/dc/dcmitype/StillImage" /></cc:Work></rdf:RDF></metadata><defs
     id="defs3009" /><sodipodi:namedview
     pagecolor="#ffffff"
     bordercolor="#666666"
     borderopacity="1"
     objecttolerance="10"
     gridtolerance="10"
     guidetolerance="10"
     inkscape:pageopacity="0"
     inkscape:pageshadow="2"
     inkscape:window-width="640"
     inkscape:window-height="480"
     id="namedview3007"
     showgrid="false"
     inkscape:zoom="1.888"
     inkscape:cx="50"
     inkscape:cy="62.5"
     inkscape:window-x="0"
     inkscape:window-y="0"
     inkscape:window-maximized="0"
     inkscape:current-layer="svg2999" /><path
     d="M89.314,19.002c-0.028-0.051-13.261-11.229-15.81-13.338c-0.265-0.219-1.275-0.351-1.275-0.351H12.5c-1.104,0-2,0.896-2,2  v85.375c0,1.104,0.896,2,2,2h75c1.104,0,2-0.896,2-2V19.833C89.5,19.809,89.511,19.359,89.314,19.002z M72.896,9.882l11.639,10.035  H72.896V9.882z M14.5,90.688V9.313h56.396v11.604c0,0.553,0.448,1,1,1H85.5v68.771H14.5z M24.534,35.591  c0.124,0.052,0.254,0.076,0.383,0.076c0.26,0,0.516-0.102,0.707-0.293l8.833-8.834c0.286-0.286,0.372-0.716,0.217-1.09  s-0.52-0.617-0.924-0.617h-8.833c-0.552,0-1,0.447-1,1v8.834C23.917,35.071,24.16,35.437,24.534,35.591z M25.917,26.833h5.419  l-5.419,5.42V26.833z M28.917,37.667h7.833v-7.834c0-0.553,0.448-1,1-1s1,0.447,1,1v8.834c0,0.553-0.448,1-1,1h-8.833  c-0.552,0-1-0.447-1-1S28.364,37.667,28.917,37.667z M49.5,35.571v2.096h-3.004c-0.552,0-1,0.447-1,1s0.448,1,1,1h8.009  c0.552,0,1-0.447,1-1s-0.448-1-1-1H51.5v-2.096c2.51-0.471,4.417-2.675,4.417-5.321c0-2.987-2.43-5.417-5.417-5.417  s-5.417,2.43-5.417,5.417C45.083,32.895,46.99,35.1,49.5,35.571z M50.5,26.833c1.884,0,3.417,1.533,3.417,3.417  c0,1.534-1.022,2.819-2.417,3.25v-3.25c0-0.553-0.448-1-1-1s-1,0.447-1,1v3.25c-1.394-0.431-2.417-1.717-2.417-3.25  C47.083,28.366,48.616,26.833,50.5,26.833z M74.229,53.242h-4.333V51.75h2.854c0.552,0,1-0.447,1-1s-0.448-1-1-1h-3.44l-3.832-3.832  c-0.391-0.391-1.023-0.391-1.414,0s-0.391,1.023,0,1.414l3.832,3.832v2.078h-4.333c-0.552,0-1,0.447-1,1  c0,3.492,2.841,6.334,6.333,6.334s6.333-2.842,6.333-6.334C75.229,53.689,74.781,53.242,74.229,53.242z M68.896,58.576  c-2.045,0-3.765-1.425-4.217-3.334h8.434C72.66,57.151,70.941,58.576,68.896,58.576z M64.219,37.667h9.125c0.552,0,1,0.447,1,1  s-0.448,1-1,1h-9.125c-0.552,0-1-0.447-1-1S63.667,37.667,64.219,37.667z M38.271,47.909h-9.167c-0.027,0-0.05,0.013-0.077,0.016  C25.678,48.086,23,50.853,23,54.242c0,3.492,2.841,6.334,6.333,6.334s6.333-2.842,6.333-6.334c0-1.677-0.659-3.199-1.727-4.333  h3.331v1.363c0,0.553,0.448,1,1,1s1-0.447,1-1v-2.363C39.271,48.356,38.823,47.909,38.271,47.909z M33.667,54.242  c0,2.39-1.944,4.334-4.333,4.334c-2.39,0-4.333-1.944-4.333-4.334s1.944-4.333,4.333-4.333  C31.723,49.909,33.667,51.853,33.667,54.242z M52.441,57.456c0.552,0,1-0.447,1-1c0-0.249-0.091-0.477-0.242-0.652l-2.487-4.305  c-0.179-0.31-0.509-0.5-0.866-0.5c-0.001,0-0.003,0-0.004,0l-3.789,0.017c-0.355,0.002-0.684,0.192-0.861,0.5l-2.564,4.44  c-0.179,0.31-0.179,0.69,0,1s0.509,0.5,0.866,0.5h8.927C52.428,57.455,52.434,57.455,52.441,57.456z M45.227,55.456l1.411-2.443  l2.634-0.011l1.417,2.454H45.227z M59.186,59.075c0.176,0.31,0.174,0.689-0.005,0.997s-0.508,0.497-0.864,0.497H48.3  c-0.552,0-1-0.447-1-1s0.448-1,1-1h8.298l-3.97-6.99c-0.272-0.48-0.104-1.091,0.376-1.363c0.479-0.273,1.091-0.104,1.363,0.375  L59.186,59.075z M63.031,30.989c0-0.553,0.448-1,1-1h3.75V26c0-0.553,0.448-1,1-1s1,0.447,1,1v9.823c0,0.553-0.448,1-1,1  s-1-0.447-1-1v-3.834h-3.75C63.479,31.989,63.031,31.542,63.031,30.989z M35.184,66.339c-0.264-0.189-0.603-0.237-0.909-0.128  l-10.168,3.568c-0.4,0.141-0.668,0.518-0.669,0.941s0.266,0.803,0.666,0.944l9.502,3.371v4.589h-6.022c-0.552,0-1,0.447-1,1  s0.448,1,1,1h7.022c0.552,0,1-0.447,1-1v-6.271c0-0.016,0-0.031,0-0.047v-7.152C35.605,66.83,35.448,66.526,35.184,66.339z   M33.605,72.914l-6.163-2.187l6.163-2.162V72.914z M57.563,69.135h-6.48c-0.552,0-1,0.447-1,1v1.375l-4.124-4.992  c-0.351-0.425-0.981-0.484-1.408-0.135c-0.426,0.353-0.486,0.982-0.134,1.408l5.895,7.137c0.01,0.012,0.024,0.015,0.034,0.026  c0.071,0.079,0.156,0.138,0.248,0.191c0.03,0.017,0.054,0.043,0.085,0.057c0.124,0.055,0.26,0.089,0.404,0.089h5.48v5.334  c0,0.553,0.448,1,1,1s1-0.447,1-1v-10.49C58.563,69.582,58.115,69.135,57.563,69.135z M52.083,73.291v-2.156h4.48v2.156H52.083z   M71.609,68.154c0.552,0,1-0.447,1-1s-0.448-1-1-1h-5.426c-0.552,0-1,0.447-1,1v6.417c0,2.047,1.666,3.713,3.713,3.713  c0.621,0,1.198-0.168,1.713-0.438v2.779h-3.921c-0.552,0-1,0.447-1,1s0.448,1,1,1h4.921c0.552,0,1-0.447,1-1v-7.054  c0-2.047-1.666-3.713-3.713-3.713c-0.621,0-1.198,0.168-1.713,0.439v-2.143H71.609z M68.896,71.858c0.944,0,1.713,0.769,1.713,1.713  s-0.769,1.713-1.713,1.713c-0.945,0-1.713-0.769-1.713-1.713S67.951,71.858,68.896,71.858z M52.083,77.438v3.188  c0,0.553-0.448,1-1,1s-1-0.447-1-1v-3.188c0-0.553,0.448-1,1-1S52.083,76.885,52.083,77.438z M48.958,77.438v3.188  c0,0.553-0.448,1-1,1s-1-0.447-1-1v-3.188c0-0.553,0.448-1,1-1S48.958,76.885,48.958,77.438z M27.458,54.242c0-0.553,0.448-1,1-1  h1.292c0.552,0,1,0.447,1,1s-0.448,1-1,1h-1.292C27.906,55.242,27.458,54.795,27.458,54.242z"
     id="path3001" /></svg>