<svg xmlns="http://www.w3.org/2000/svg" xmlns:xlink="http://www.w3.org/1999/xlink" version="1.1" x="0px" y="0px" viewBox="0 0 100 125" enable-background="new 0 0 100 100" xml:space="preserve"><path fill-rule="evenodd" clip-rule="evenodd" d="M78.201,77.618H40.998c-1.667,0-3.018-1.351-3.018-3.018v-1.2  c0-1.667,1.351-3.018,3.018-3.018h37.203c1.667,0,3.018,1.351,3.018,3.018v1.2C81.219,76.267,79.868,77.618,78.201,77.618z   M78.201,53.618H40.998c-1.667,0-3.018-1.351-3.018-3.018v-1.2c0-1.667,1.351-3.018,3.018-3.018h37.203  c1.667,0,3.018,1.351,3.018,3.018v1.2C81.219,52.267,79.868,53.618,78.201,53.618z M78.201,29.618H40.998  c-1.667,0-3.018-1.351-3.018-3.018v-1.2c0-1.667,1.351-3.018,3.018-3.018h37.203c1.667,0,3.018,1.351,3.018,3.018v1.2  C81.219,28.267,79.868,29.618,78.201,29.618z M27.801,77.618h-6.003c-1.666,0-3.017-1.351-3.017-3.018v-1.2  c0-1.667,1.351-3.018,3.017-3.018h6.003c1.667,0,3.018,1.351,3.018,3.018v1.2C30.819,76.267,29.468,77.618,27.801,77.618z   M27.801,53.618h-6.003c-1.666,0-3.017-1.351-3.017-3.018v-1.2c0-1.667,1.351-3.018,3.017-3.018h6.003  c1.667,0,3.018,1.351,3.018,3.018v1.2C30.819,52.267,29.468,53.618,27.801,53.618z M27.802,29.618h-6.004  c-1.666,0-3.017-1.351-3.017-3.018v-1.2c0-1.667,1.351-3.018,3.017-3.018h6.004c1.666,0,3.017,1.351,3.017,3.018v1.2  C30.819,28.267,29.468,29.618,27.802,29.618z"/><text x="0" y="115" fill="#000000" font-size="5px" font-weight="bold" font-family="'Helvetica Neue', Helvetica, Arial-Unicode, Arial, Sans-serif">Created by Alex Bickov</text><text x="0" y="120" fill="#000000" font-size="5px" font-weight="bold" font-family="'Helvetica Neue', Helvetica, Arial-Unicode, Arial, Sans-serif">from the Noun Project</text></svg>