<svg xmlns:x="http://ns.adobe.com/Extensibility/1.0/" xmlns:i="http://ns.adobe.com/AdobeIllustrator/10.0/" xmlns:graph="http://ns.adobe.com/Graphs/1.0/" xmlns="http://www.w3.org/2000/svg" xmlns:xlink="http://www.w3.org/1999/xlink" version="1.1" x="0px" y="0px" viewBox="0 0 64 80" enable-background="new 0 0 64 64" xml:space="preserve"><metadata><sfw xmlns="http://ns.adobe.com/SaveForWeb/1.0/"><slices/><sliceSourceBounds height="16384" width="16389" x="-8165" y="-8160" bottomLeftOrigin="true"/></sfw></metadata><g><path d="M58,37h-5v-5c0-0.552-0.447-1-1-1H33v-4h5c0.553,0,1-0.448,1-1V14c0-0.552-0.447-1-1-1H26c-0.552,0-1,0.448-1,1v12   c0,0.552,0.448,1,1,1h5v4H12c-0.552,0-1,0.448-1,1v5H6c-0.552,0-1,0.447-1,1v12c0,0.553,0.448,1,1,1h12c0.552,0,1-0.447,1-1V38   c0-0.553-0.448-1-1-1h-5v-4h18v4h-5c-0.552,0-1,0.447-1,1v12c0,0.553,0.448,1,1,1h12c0.553,0,1-0.447,1-1V38c0-0.553-0.447-1-1-1   h-5v-4h18v4h-5c-0.553,0-1,0.447-1,1v12c0,0.553,0.447,1,1,1h12c0.553,0,1-0.447,1-1V38C59,37.447,58.553,37,58,37z M27,15h10v10   H27V15z M17,49H7V39h10V49z M37,49H27V39h10V49z M57,49H47V39h10V49z"/></g><text x="0" y="79" fill="#000000" font-size="5px" font-weight="bold" font-family="'Helvetica Neue', Helvetica, Arial-Unicode, Arial, Sans-serif">Created by Ralf Schmitzer</text><text x="0" y="84" fill="#000000" font-size="5px" font-weight="bold" font-family="'Helvetica Neue', Helvetica, Arial-Unicode, Arial, Sans-serif">from the Noun Project</text></svg>